:FULLY-SPECIFIED
:FORCE-ALL-JOINTS-BE-3DOF
:DEGREES
476
root 3.583 16.3128 -7.12998 5.26502 60.0436 -7.21887
lfemur -41.065 1.02735 -22.2311
ltibia 49.2016 -0 0
lfoot -20.3484 -1.65577 -0.0295052
ltoes 18.068 -0 0
rfemur -24.0573 -1.50152 11.8516
rtibia 68.8446 -0 0
rfoot 23.2412 -2.17031 -0.347163
rtoes -28.0256 0 0
lowerback 1.30737 -0.301929 2.14893
upperback -0.646165 -0.34747 1.08321
thorax -1.39427 -0.181852 -0.0713357
lowerneck -8.38575 -6.55229 0.744661
upperneck 3.71992 -8.90832 1.3759
head 2.70637 -4.36683 -0.107376
lclavicle -2.28855e-14 -1.38319e-14 -1.52866e-30
lhumerus -48.7093 -27.066 108.515
lradius 54.5378 -0 0
lwrist 3.26541 0 0
lhand -9.62025 -6.09309 0.551207
lfingers 7.12502 -0 0
lthumb 16.3305 22.9501 0.476534
rclavicle -2.28855e-14 -1.38319e-14 -1.52866e-30
rhumerus -53.8863 1.46399 -85.7296
rradius 60.898 -0 0
rwrist 17.5705 0 0
rhand -28.9767 -27.1828 -0.263253
rfingers 7.12502 -0 0
rthumb -2.30803 -57.3679 -0.32975
477
root 3.66756 16.3335 -7.08745 5.49544 61.1772 -6.58222
lfemur -39.9884 -0.467045 -22.387
ltibia 48.642 -0 0
lfoot -20.4277 -1.68987 -0.0267937
ltoes 18.2157 -0 0
rfemur -26.2505 -1.40707 11.6256
rtibia 71.3781 -0 0
rfoot 22.5957 -1.07005 -0.314803
rtoes -26.3254 0 0
lowerback 1.48781 -0.321845 1.83967
upperback -0.602676 -0.378665 0.970509
thorax -1.45037 -0.195831 -0.0138408
lowerneck -8.39891 -6.70771 0.601362
upperneck 3.80346 -9.10669 1.44687
head 2.74928 -4.46402 -0.0743762
lclavicle -1.88833e-14 -1.27323e-14 -1.50861e-30
lhumerus -48.8053 -27.4282 108.746
lradius 54.8197 -0 0
lwrist 3.53351 0 0
lhand -8.2677 -5.35519 0.504557
lfingers 7.12502 -0 0
lthumb 17.6331 23.5982 0.436643
rclavicle -1.88833e-14 -1.27323e-14 -1.50861e-30
rhumerus -53.6186 2.10771 -86.3163
rradius 61.0641 -0 0
rwrist 18.149 0 0
rhand -28.5826 -26.8714 -0.265955
rfingers 7.12502 -0 0
rthumb -1.92724 -57.0622 -0.332734
478
root 3.7515 16.3531 -7.04425 5.73243 62.3101 -5.94711
lfemur -38.9303 -1.91891 -22.5497
ltibia 48.1149 -0 0
lfoot -20.5151 -1.73492 -0.0236535
ltoes 18.334 -0 0
rfemur -28.4036 -1.30626 11.4013
rtibia 73.7701 -0 0
rfoot 21.9434 -0.00527612 -0.27249
rtoes -24.6913 0 0
lowerback 1.67402 -0.339092 1.53976
upperback -0.557596 -0.406815 0.865388
thorax -1.50805 -0.208365 0.046169
lowerneck -8.41241 -6.86291 0.458832
upperneck 3.8961 -9.30492 1.5161
head 2.79452 -4.56108 -0.0428298
lclavicle -1.50397e-14 -1.16248e-14 -1.41842e-30
lhumerus -48.8935 -27.7885 108.982
lradius 55.0917 -0 0
lwrist 3.79388 0 0
lhand -6.94897 -4.64035 0.444022
lfingers 7.12502 -0 0
lthumb 18.9031 24.2238 0.384587
rclavicle -1.50397e-14 -1.16248e-14 -1.41842e-30
rhumerus -53.3209 2.81464 -86.8916
rradius 61.3161 -0 0
rwrist 18.6766 0 0
rhand -28.1306 -26.5453 -0.259933
rfingers 7.12502 -0 0
rthumb -1.49136 -56.7345 -0.32486
479
root 3.83451 16.3716 -7.00016 5.97152 63.4465 -5.32086
lfemur -37.9004 -3.3136 -22.7194
ltibia 47.6266 -0 0
lfoot -20.61 -1.79012 -0.02016
ltoes 18.4249 -0 0
rfemur -30.4944 -1.1965 11.1815
rtibia 75.9858 -0 0
rfoot 21.2982 1.01259 -0.222801
rtoes -23.142 0 0
lowerback 1.86417 -0.353773 1.25263
upperback -0.51149 -0.431919 0.769964
thorax -1.56689 -0.219465 0.108976
lowerneck -8.42648 -7.01817 0.317197
upperneck 3.99924 -9.50342 1.583
head 2.84239 -4.65821 -0.0130273
lclavicle -1.14242e-14 -1.05222e-14 -1.26381e-30
lhumerus -48.9736 -28.143 109.224
lradius 55.35 -0 0
lwrist 4.042 0 0
lhand -5.67772 -3.95928 0.372574
lfingers 7.12502 -0 0
lthumb 20.1273 24.8166 0.322948
rclavicle -1.14242e-14 -1.05222e-14 -1.26381e-30
rhumerus -52.992 3.58963 -87.4475
rradius 61.6638 -0 0
rwrist 19.142 0 0
rhand -27.6152 -26.2043 -0.244304
rfingers 7.12502 -0 0
rthumb -0.994811 -56.3835 -0.305024
480
root 3.91632 16.3887 -6.95493 6.20746 64.591 -4.7115
lfemur -36.9085 -4.63653 -22.895
ltibia 47.1831 -0 0
lfoot -20.7116 -1.85469 -0.0163891
ltoes 18.4905 -0 0
rfemur -32.5009 -1.07482 10.9691
rtibia 77.9906 -0 0
rfoot 20.6734 1.97223 -0.169046
rtoes -21.6961 0 0
lowerback 2.05639 -0.366036 0.981752
upperback -0.46492 -0.453981 0.686352
thorax -1.62644 -0.229147 0.174864
lowerneck -8.44136 -7.17381 0.176584
upperneck 4.11431 -9.7026 1.64697
head 2.89319 -4.75562 0.0147395
lclavicle -8.10666e-15 -9.43775e-15 -1.05476e-30
lhumerus -49.0457 -28.488 109.474
lradius 55.5909 -0 0
lwrist 4.27334 0 0
lhand -4.46755 -3.32256 0.293912
lfingers 7.12502 -0 0
lthumb 21.2926 25.3666 0.254944
rclavicle -8.10666e-15 -9.43775e-15 -1.05476e-30
rhumerus -52.6304 4.43745 -87.9758
rradius 62.1173 -0 0
rwrist 19.534 0 0
rhand -27.0303 -25.8483 -0.218305
rfingers 7.12502 -0 0
rthumb -0.432119 -56.008 -0.27228
481
root 3.99664 16.4046 -6.90834 6.43404 65.748 -4.12805
lfemur -35.9649 -5.87317 -23.0746
ltibia 46.7903 -0 0
lfoot -20.8194 -1.9278 -0.0124156
ltoes 18.5329 -0 0
rfemur -34.4011 -0.93792 10.7669
rtibia 79.75 -0 0
rfoot 20.0828 2.86239 -0.115187
rtoes -20.3722 0 0
lowerback 2.24883 -0.376073 0.730557
upperback -0.418453 -0.47301 0.616666
thorax -1.68629 -0.237424 0.244115
lowerneck -8.45728 -7.33011 0.0371202
upperneck 4.24273 -9.90287 1.70739
head 2.94723 -4.85348 0.0401775
lclavicle -5.15659e-15 -8.38437e-15 -8.05233e-31
lhumerus -49.1097 -28.8197 109.732
lradius 55.8106 -0 0
lwrist 4.48336 0 0
lhand -3.33194 -2.74057 0.212353
lfingers 7.12502 -0 0
lthumb 22.3861 25.8642 0.184333
rclavicle -5.15659e-15 -8.38437e-15 -8.05233e-31
rhumerus -52.2344 5.36274 -88.4679
rradius 62.6862 -0 0
rwrist 19.8414 0 0
rhand -26.3704 -25.4769 -0.181299
rfingers 7.12502 -0 0
rthumb 0.202262 -55.6065 -0.225862
482
root 4.07518 16.4191 -6.86016 6.64381 66.922 -3.58073
lfemur -35.0799 -7.00907 -23.2558
ltibia 46.4545 -0 0
lfoot -20.9327 -2.00866 -0.00831296
ltoes 18.554 -0 0
rfemur -36.173 -0.782186 10.5777
rtibia 81.2292 -0 0
rfoot 19.5394 3.67194 -0.065734
rtoes -19.1889 0 0
lowerback 2.43964 -0.384115 0.502493
upperback -0.372652 -0.489022 0.563021
thorax -1.74599 -0.24431 0.31701
lowerneck -8.47446 -7.48737 -0.101064
upperneck 4.38593 -10.1046 1.76361
head 3.00482 -4.952 0.0629917
lclavicle -2.64368e-15 -7.37512e-15 -5.32564e-31
lhumerus -49.1652 -29.1343 110.001
lradius 56.0055 -0 0
lwrist 4.66753 0 0
lhand -2.28424 -2.22351 0.13271
lfingers 7.12502 -0 0
lthumb 23.3947 26.2995 0.1153
rclavicle -2.64368e-15 -7.37512e-15 -5.32564e-31
rhumerus -51.8017 6.37003 -88.915
rradius 63.3805 -0 0
rwrist 20.0531 0 0
rhand -25.6296 -25.0899 -0.132787
rfingers 7.12502 -0 0
rthumb 0.913912 -55.1775 -0.1652
483
root 4.15166 16.4322 -6.81015 6.82764 68.1177 -3.08146
lfemur -34.2646 -8.0299 -23.4352
ltibia 46.1817 -0 0
lfoot -21.0509 -2.09648 -0.00415192
ltoes 18.556 -0 0
rfemur -37.7944 -0.60378 10.4043
rtibia 82.3937 -0 0
rfoot 19.0567 4.38982 -0.0256101
rtoes -18.1647 0 0
lowerback 2.62696 -0.390429 0.301009
upperback -0.32808 -0.502036 0.527533
thorax -1.80512 -0.24982 0.393833
lowerneck -8.49315 -7.64591 -0.237836
upperneck 4.54535 -10.3083 1.815
head 3.06626 -5.05137 0.0828857
lclavicle -6.37586e-16 -6.42303e-15 -2.56835e-31
lhumerus -49.2123 -29.4282 110.28
lradius 56.1717 -0 0
lwrist 4.82133 0 0
lhand -1.33776 -1.78142 0.0601463
lfingers 7.12502 -0 0
lthumb 24.3056 26.663 0.0523188
rclavicle -6.37586e-16 -6.42303e-15 -2.56835e-31
rhumerus -51.33 7.46364 -89.3081
rradius 64.2102 -0 0
rwrist 20.1579 0 0
rhand -24.802 -24.6867 -0.0724181
rfingers 7.12502 -0 0
rthumb 1.70845 -54.7196 -0.0899461
484
root 4.22579 16.4437 -6.75809 6.97404 69.3397 -2.6445
lfemur -33.53 -8.92142 -23.6091
ltibia 45.9779 0 0
lfoot -21.1734 -2.19044 0
ltoes 18.5409 0 0
rfemur -39.2433 -0.398685 10.2498
rtibia 83.2088 0 0
rfoot 18.6477 5.00504 0
rtoes -17.3184 0 0
lowerback 2.80895 -0.395314 0.129542
upperback -0.285297 -0.512072 0.512318
thorax -1.86323 -0.25397 0.474865
lowerneck -8.51357 -7.80601 -0.373066
upperneck 4.72242 -10.5143 1.86088
head 3.13186 -5.15179 0.0995613
lclavicle 7.92033e-16 -5.54112e-15 0
lhumerus -49.2505 -29.6974 110.571
lradius 56.3056 0 0
lwrist 4.94023 0 0
lhand -0.505724 -1.42422 0
lfingers 7.12502 0 0
lthumb 25.1059 26.9452 0
rclavicle 7.92033e-16 -5.54112e-15 0
rhumerus -50.8159 8.64771 -89.6376
rradius 65.185 0 0
rwrist 20.1445 0 0
rhand -23.8818 -24.267 0
rfingers 7.12502 0 0
rthumb 2.59155 -774.231 0
485
root 4.29813 16.4545 -6.70416 7.06381 70.5769 -2.28028
lfemur -32.8476 -9.72831 -23.7569
ltibia 45.8216 -0 0
lfoot -21.3053 -2.31481 0.00530349
ltoes 18.5021 -0 0
rfemur -40.5925 -0.152373 10.1182
rtibia 83.7039 -0 0
rfoot 18.2578 5.53372 0.0149349
rtoes -16.6081 0 0
lowerback 2.99399 -0.398734 -0.0208924
upperback -0.244589 -0.519982 0.512147
thorax -1.92516 -0.257187 0.559791
lowerneck -8.53902 -7.96504 -0.505903
upperneck 4.92156 -10.7193 1.89889
head 3.20283 -5.25163 0.11214
lclavicle 1.78388e-15 -4.66683e-15 2.30158e-31
lhumerus -49.278 -29.9646 110.884
lradius 56.4084 -0 0
lwrist 5.01932 0 0
lhand 0.268278 -1.1238 -0.0492105
lfingers 7.12502 -0 0
lthumb 25.8497 27.1681 -0.043104
rclavicle 1.78388e-15 -4.66683e-15 2.30158e-31
rhumerus -50.2784 10.008 -89.9336
rradius 66.3309 -0 0
rwrist 20.0648 0 0
rhand -22.7879 -23.8 0.0908638
rfingers 7.12502 -0 0
rthumb 3.64102 -53.6733 0.112381
486
root 4.36945 16.4652 -6.64877 7.08374 71.8152 -1.99149
lfemur -32.1822 -10.5044 -23.8626
ltibia 45.6883 -0 0
lfoot -21.4515 -2.48997 0.0125819
ltoes 18.4321 -0 0
rfemur -41.9266 0.143493 10.0078
rtibia 83.9442 -0 0
rfoot 17.8273 6.00213 0.0268761
rtoes -15.9781 0 0
lowerback 3.19098 -0.400396 -0.161608
upperback -0.205522 -0.52644 0.520306
thorax -1.99528 -0.259775 0.64802
lowerneck -8.57187 -8.12054 -0.6358
upperneck 5.14464 -10.9203 1.92778
head 3.27977 -5.34937 0.120262
lclavicle 2.53249e-15 -3.73445e-15 4.40255e-31
lhumerus -49.2938 -30.2524 111.224
lradius 56.4856 -0 0
lwrist 5.06013 0 0
lhand 1.04548 -0.845411 -0.0926945
lfingers 7.12502 -0 0
lthumb 26.596 27.361 -0.0814467
rclavicle 2.53249e-15 -3.73445e-15 4.40255e-31
rhumerus -49.7367 11.6081 -90.2281
rradius 67.6568 -0 0
rwrist 19.9735 0 0
rhand -21.4621 -23.2606 0.200688
rfingers 7.12502 -0 0
rthumb 4.91301 -53.0165 0.247916
487
root 4.43983 16.4758 -6.59207 7.02798 73.0549 -1.78412
lfemur -31.5359 -11.2489 -23.9298
ltibia 45.5795 -0 0
lfoot -21.611 -2.7093 0.0212664
ltoes 18.3311 -0 0
rfemur -43.2415 0.483554 9.91307
rtibia 83.9484 -0 0
rfoot 17.3616 6.41449 0.036198
rtoes -15.4262 0 0
lowerback 3.39886 -0.400244 -0.292648
upperback -0.167569 -0.531208 0.536675
thorax -2.07249 -0.261563 0.739415
lowerneck -8.61099 -8.2731 -0.763084
upperneck 5.3893 -11.1178 1.94856
head 3.36211 -5.44532 0.124402
lclavicle 3.05198e-15 -2.75234e-15 6.28732e-31
lhumerus -49.2989 -30.5572 111.587
lradius 56.5398 -0 0
lwrist 5.06774 0 0
lhand 1.81991 -0.588872 -0.130638
lfingers 7.12502 -0 0
lthumb 27.339 27.5253 -0.114928
rclavicle 3.05198e-15 -2.75234e-15 6.28732e-31
rhumerus -49.1871 13.4189 -90.514
rradius 69.147 -0 0
rwrist 19.8641 0 0
rhand -19.9328 -22.6569 0.320748
rfingers 7.12502 -0 0
rthumb 6.38062 -52.2712 0.395945
488
root 4.50932 16.486 -6.53418 6.88871 74.296 -1.66611
lfemur -30.9102 -11.9613 -23.9617
ltibia 45.4968 -0 0
lfoot -21.7827 -2.96616 0.0307995
ltoes 18.1995 -0 0
rfemur -44.533 0.862232 9.82905
rtibia 83.7356 -0 0
rfoot 16.8662 6.77503 0.0431526
rtoes -14.9497 0 0
lowerback 3.61659 -0.398231 -0.414052
upperback -0.130207 -0.534043 0.561136
thorax -2.15568 -0.262386 0.833844
lowerneck -8.65523 -8.42327 -0.88809
upperneck 5.65316 -11.3125 1.96228
head 3.44924 -5.53981 0.125041
lclavicle 3.35647e-15 -1.72884e-15 7.93721e-31
lhumerus -49.2941 -30.8753 111.971
lradius 56.5736 -0 0
lwrist 5.04725 0 0
lhand 2.58557 -0.354025 -0.163177
lfingers 7.12502 -0 0
lthumb 28.0731 27.6625 -0.143454
rclavicle 3.35647e-15 -1.72884e-15 7.93721e-31
rhumerus -48.6251 15.411 -90.7842
rradius 70.7858 -0 0
rwrist 19.7299 0 0
rhand -18.2283 -21.9969 0.442626
rfingers 7.12502 -0 0
rthumb 8.0168 -51.4489 0.546124
